<svg width="24" height="24" viewBox="0 0 24 24" fill="none" xmlns="http://www.w3.org/2000/svg">
<path d="M23.6427 4.93756C22.8077 5.30756 21.9107 5.55756 20.9677 5.67057C21.9407 5.08836 22.6687 4.17203 23.0157 3.09257C22.1016 3.63555 21.1011 4.01776 20.0577 4.22257C19.3561 3.47343 18.4268 2.97689 17.414 2.81004C16.4013 2.64319 15.3618 2.81536 14.4569 3.29982C13.5521 3.78428 12.8325 4.55393 12.4099 5.48927C11.9872 6.42461 11.8852 7.47331 12.1197 8.47256C10.2674 8.37956 8.45534 7.89811 6.80113 7.05947C5.14693 6.22083 3.68755 5.04373 2.51771 3.60457C2.11771 4.29457 1.88771 5.09457 1.88771 5.94656C1.88726 6.71356 2.07614 7.46881 2.43759 8.1453C2.79903 8.82179 3.32187 9.3986 3.95971 9.82456C3.21998 9.80103 2.49658 9.60115 1.84971 9.24156V9.30156C1.84963 10.3773 2.22174 11.4199 2.90289 12.2526C3.58404 13.0852 4.53228 13.6565 5.58671 13.8696C4.90049 14.0553 4.18104 14.0826 3.48271 13.9496C3.7802 14.8752 4.3597 15.6846 5.14007 16.2645C5.92045 16.8444 6.86263 17.1657 7.83471 17.1836C6.18454 18.479 4.14659 19.1817 2.04871 19.1786C1.67709 19.1787 1.30578 19.157 0.936707 19.1136C3.06618 20.4827 5.54505 21.2094 8.07671 21.2066C16.6467 21.2066 21.3317 14.1086 21.3317 7.95256C21.3317 7.75256 21.3267 7.55056 21.3177 7.35056C22.229 6.69154 23.0156 5.87546 23.6407 4.94057L23.6427 4.93756Z" fill="#23AFF5"/>
</svg>
