<svg width="92" height="39" viewBox="0 0 92 39" fill="none" xmlns="http://www.w3.org/2000/svg">
<path d="M49.4453 7.02021H54.1479V31.0202H49.4453V7.02021Z" fill="white"/>
<path d="M68.1238 18.0602C67.4144 17.8088 66.7736 17.6831 66.2016 17.6831C65.4006 17.6831 64.7256 17.9002 64.1763 18.3345C63.65 18.7459 63.2953 19.2831 63.1123 19.9459V31.0202H58.6499V13.8774H62.1168L62.6317 16.1402H62.769C63.158 15.2945 63.6843 14.6431 64.348 14.1859C65.0116 13.7288 65.7896 13.5002 66.6821 13.5002C67.2771 13.5002 67.9522 13.6259 68.7073 13.8774L68.1238 18.0602Z" fill="white"/>
<path d="M71.0959 13.8774H75.5582V31.0202H71.0959V13.8774ZM70.4437 9.04307C70.4437 8.38021 70.684 7.82021 71.1645 7.36307C71.668 6.88307 72.3545 6.64307 73.2241 6.64307C74.0937 6.64307 74.7916 6.88307 75.3179 7.36307C75.8672 7.82021 76.1418 8.38021 76.1418 9.04307C76.1418 9.70592 75.8672 10.2659 75.3179 10.7231C74.7916 11.1574 74.0937 11.3745 73.2241 11.3745C72.3545 11.3745 71.668 11.1574 71.1645 10.7231C70.684 10.2659 70.4437 9.70592 70.4437 9.04307Z" fill="white"/>
<path d="M87.0077 26.2888C87.0077 25.8316 86.8132 25.4659 86.4241 25.1916C86.0351 24.9174 85.5546 24.6659 84.9825 24.4374C84.4104 24.2088 83.7811 23.9802 83.0946 23.7516C82.408 23.5002 81.7787 23.1688 81.2067 22.7574C80.6346 22.3231 80.154 21.7859 79.765 21.1459C79.376 20.4831 79.1814 19.6374 79.1814 18.6088C79.1814 16.9174 79.6849 15.6259 80.6918 14.7345C81.6987 13.8431 83.1518 13.3974 85.0511 13.3974C86.3555 13.3974 87.534 13.5345 88.5867 13.8088C89.6393 14.0831 90.4631 14.3916 91.0581 14.7345L90.0627 17.9574C89.5363 17.7516 88.8727 17.5345 88.0718 17.3059C87.2708 17.0774 86.4585 16.9631 85.6347 16.9631C84.3074 16.9631 83.6438 17.4774 83.6438 18.5059C83.6438 18.9174 83.8383 19.2488 84.2273 19.5002C84.6163 19.7516 85.0969 19.9916 85.669 20.2202C86.2411 20.4259 86.8704 20.6545 87.5569 20.9059C88.2434 21.1574 88.8727 21.4888 89.4448 21.9002C90.0169 22.2888 90.4974 22.8031 90.8865 23.4431C91.2755 24.0831 91.47 24.9059 91.47 25.9116C91.47 27.6488 90.9094 29.0202 89.788 30.0259C88.6896 31.0088 87.0306 31.5002 84.8108 31.5002C83.598 31.5002 82.4538 31.3402 81.3783 31.0202C80.3256 30.7231 79.4675 30.3688 78.8039 29.9574L80.0396 26.6316C80.5659 26.9288 81.2639 27.2259 82.1334 27.5231C83.003 27.7974 83.8955 27.9345 84.8108 27.9345C85.4745 27.9345 86.0008 27.8088 86.3898 27.5574C86.8017 27.3059 87.0077 26.8831 87.0077 26.2888Z" fill="white"/>
<g clip-path="url(#clip0)">
<path d="M20.0881 26.7324C19.85 26.7324 19.6231 26.6263 19.4703 26.4431C13.8725 19.7317 13.8725 12.0351 19.4703 5.32365C19.7744 4.95722 20.4003 4.95722 20.706 5.32365C26.3038 12.0351 26.3038 19.7317 20.706 26.4431C20.5532 26.6263 20.3263 26.7324 20.0881 26.7324ZM20.0881 7.13008C15.784 12.8065 15.784 18.9619 20.0881 24.6383C24.3923 18.9619 24.3923 12.8065 20.0881 7.13008Z" fill="white"/>
<path d="M20.0881 33.9643C19.85 33.9643 19.6231 33.8582 19.4702 33.675C18.1541 32.0968 17.1307 30.4302 16.4308 28.7234C16.2635 28.312 16.4598 27.8427 16.8701 27.6756C17.282 27.5084 17.7518 27.7045 17.9191 28.1143C18.4421 29.3936 19.1694 30.652 20.0865 31.867C21.002 30.652 21.7293 29.3936 22.2538 28.1143C22.4212 27.7045 22.891 27.5068 23.3029 27.6756C23.7148 27.8427 23.9111 28.312 23.7422 28.7234C23.0422 30.4302 22.0205 32.0968 20.7027 33.675C20.5531 33.8582 20.3262 33.9643 20.0881 33.9643Z" fill="white"/>
<path d="M20.1026 26.7164C19.6923 26.7164 19.3415 26.403 19.3029 25.9867C19.2627 25.5447 19.5877 25.1526 20.0302 25.1124C27.6762 24.4053 31.8806 20.4983 32.854 13.1794C29.3335 13.6535 26.5741 14.8878 24.6368 16.8501C24.3214 17.1667 23.8114 17.1699 23.4992 16.8581C23.1823 16.5463 23.179 16.0385 23.4896 15.7219C25.879 13.3015 29.311 11.8712 33.6923 11.4678C33.9256 11.4421 34.1654 11.5305 34.3343 11.6992C34.5017 11.868 34.5885 12.1026 34.5676 12.3405C33.7776 21.0689 28.9361 25.9031 20.1798 26.7131C20.1525 26.7164 20.1267 26.7164 20.1026 26.7164Z" fill="white"/>
<path d="M28.947 30.7595C25.8256 30.7595 22.7025 29.575 19.5987 27.2029C19.2447 26.9345 19.1787 26.4299 19.4474 26.0763C19.7194 25.7227 20.223 25.6584 20.5753 25.9268C26.2005 30.2243 31.6775 30.2308 37.301 25.9397C34.7475 23.9983 32.1908 22.9343 29.6888 22.7704C29.2463 22.7415 28.9116 22.359 28.939 21.9154C28.9696 21.4734 29.3107 21.1359 29.795 21.1665C32.8956 21.369 36.0283 22.7672 39.1047 25.3193C39.2898 25.472 39.396 25.6986 39.396 25.9365C39.396 26.1759 39.2914 26.4025 39.1063 26.5552C35.7387 29.3581 32.3421 30.7595 28.947 30.7595Z" fill="white"/>
<path d="M11.2287 30.7599C7.83369 30.7599 4.43707 29.3585 1.06941 26.5556C0.884371 26.4029 0.779785 26.1763 0.779785 25.9369C0.779785 25.699 0.88598 25.4724 1.07102 25.3197C4.14745 22.7676 7.28019 21.3694 10.3808 21.1669C10.857 21.1331 11.2078 21.4738 11.2368 21.9158C11.2657 22.3578 10.931 22.7419 10.487 22.7708C7.98333 22.9347 5.42661 24.0003 2.87472 25.9401C8.495 30.2311 13.9753 30.2247 19.6004 25.9272C19.9528 25.6588 20.458 25.7231 20.7283 26.0767C20.997 26.4286 20.931 26.9333 20.5771 27.2033C17.4733 29.5738 14.3518 30.7599 11.2287 30.7599Z" fill="white"/>
<path d="M20.0738 26.7164C20.0481 26.7164 20.024 26.7164 19.9982 26.7131C11.242 25.9031 6.40047 21.0672 5.61044 12.3405C5.58792 12.1042 5.6748 11.868 5.84375 11.6992C6.0127 11.5305 6.246 11.4421 6.48574 11.4678C10.8671 11.8696 14.2975 13.3015 16.6885 15.7219C16.999 16.0385 16.9958 16.5463 16.6788 16.8581C16.3651 17.1699 15.855 17.1667 15.5413 16.8501C13.604 14.8878 10.8429 13.6551 7.32243 13.1794C8.29427 20.4983 12.5002 24.4053 20.1463 25.1124C20.5887 25.1526 20.9154 25.5447 20.8735 25.9867C20.8349 26.403 20.4841 26.7164 20.0738 26.7164Z" fill="white"/>
</g>
<defs>
<clipPath id="clip0">
<rect width="38.6163" height="38.5714" fill="white" transform="translate(0.779785 0.214355)"/>
</clipPath>
</defs>
</svg>
