<svg width="93" height="45" viewBox="0 0 93 45" fill="none" xmlns="http://www.w3.org/2000/svg">
<path d="M49.4453 10.0202H54.1479V34.0202H49.4453V10.0202Z" fill="#221B4A"/>
<path d="M68.1237 21.0602C67.4143 20.8088 66.7736 20.6831 66.2015 20.6831C65.4006 20.6831 64.7255 20.9002 64.1763 21.3345C63.65 21.7459 63.2953 22.2831 63.1122 22.9459V34.0202H58.6499V16.8774H62.1167L62.6316 19.1402H62.7689C63.158 18.2945 63.6843 17.6431 64.3479 17.1859C65.0115 16.7288 65.7896 16.5002 66.6821 16.5002C67.277 16.5002 67.9521 16.6259 68.7073 16.8774L68.1237 21.0602Z" fill="#221B4A"/>
<path d="M71.0958 16.8774H75.5582V34.0202H71.0958V16.8774ZM70.4437 12.0431C70.4437 11.3802 70.6839 10.8202 71.1645 10.3631C71.6679 9.88307 72.3544 9.64307 73.224 9.64307C74.0936 9.64307 74.7916 9.88307 75.3179 10.3631C75.8671 10.8202 76.1417 11.3802 76.1417 12.0431C76.1417 12.7059 75.8671 13.2659 75.3179 13.7231C74.7916 14.1574 74.0936 14.3745 73.224 14.3745C72.3544 14.3745 71.6679 14.1574 71.1645 13.7231C70.6839 13.2659 70.4437 12.7059 70.4437 12.0431Z" fill="#221B4A"/>
<path d="M87.0076 29.2888C87.0076 28.8316 86.8131 28.4659 86.4241 28.1916C86.0351 27.9174 85.5545 27.6659 84.9824 27.4374C84.4103 27.2088 83.781 26.9802 83.0945 26.7516C82.408 26.5002 81.7787 26.1688 81.2066 25.7574C80.6345 25.3231 80.1539 24.7859 79.7649 24.1459C79.3759 23.4831 79.1814 22.6374 79.1814 21.6088C79.1814 19.9174 79.6848 18.6259 80.6917 17.7345C81.6986 16.8431 83.1517 16.3974 85.0511 16.3974C86.3554 16.3974 87.5339 16.5345 88.5866 16.8088C89.6392 17.0831 90.4631 17.3916 91.058 17.7345L90.0626 20.9574C89.5363 20.7516 88.8726 20.5345 88.0717 20.3059C87.2708 20.0774 86.4584 19.9631 85.6346 19.9631C84.3073 19.9631 83.6437 20.4774 83.6437 21.5059C83.6437 21.9174 83.8382 22.2488 84.2272 22.5002C84.6163 22.7516 85.0968 22.9916 85.6689 23.2202C86.241 23.4259 86.8703 23.6545 87.5568 23.9059C88.2433 24.1574 88.8726 24.4888 89.4447 24.9002C90.0168 25.2888 90.4974 25.8031 90.8864 26.4431C91.2754 27.0831 91.4699 27.9059 91.4699 28.9116C91.4699 30.6488 90.9093 32.0202 89.788 33.0259C88.6896 34.0088 87.0305 34.5002 84.8108 34.5002C83.5979 34.5002 82.4538 34.3402 81.3782 34.0202C80.3256 33.7231 79.4674 33.3688 78.8038 32.9574L80.0395 29.6316C80.5658 29.9288 81.2638 30.2259 82.1334 30.5231C83.003 30.7974 83.8954 30.9345 84.8108 30.9345C85.4744 30.9345 86.0007 30.8088 86.3898 30.5574C86.8017 30.3059 87.0076 29.8831 87.0076 29.2888Z" fill="#221B4A"/>
<g clip-path="url(#clip0)">
<path d="M20.0883 29.7324C19.8501 29.7324 19.6233 29.6263 19.4704 29.4431C13.8727 22.7317 13.8727 15.0351 19.4704 8.32365C19.7745 7.95722 20.4004 7.95722 20.7061 8.32365C26.3039 15.0351 26.3039 22.7317 20.7061 29.4431C20.5533 29.6263 20.3264 29.7324 20.0883 29.7324ZM20.0883 10.1301C15.7842 15.8065 15.7842 21.9619 20.0883 27.6383C24.3924 21.9619 24.3924 15.8065 20.0883 10.1301Z" fill="#221B4A"/>
<path d="M20.0881 36.9643C19.85 36.9643 19.6231 36.8582 19.4703 36.675C18.1541 35.0968 17.1308 33.4302 16.4308 31.7234C16.2635 31.312 16.4598 30.8427 16.8701 30.6756C17.282 30.5084 17.7518 30.7045 17.9192 31.1143C18.4421 32.3936 19.1694 33.652 20.0865 34.867C21.002 33.652 21.7293 32.3936 22.2539 31.1143C22.4212 30.7045 22.891 30.5068 23.3029 30.6756C23.7148 30.8427 23.9111 31.312 23.7422 31.7234C23.0423 33.4302 22.0206 35.0968 20.7028 36.675C20.5531 36.8582 20.3263 36.9643 20.0881 36.9643Z" fill="#221B4A"/>
<path d="M20.1026 29.7164C19.6923 29.7164 19.3416 29.403 19.303 28.9867C19.2627 28.5447 19.5878 28.1526 20.0302 28.1124C27.6763 27.4053 31.8806 23.4983 32.8541 16.1794C29.3335 16.6535 26.5741 17.8878 24.6368 19.8501C24.3215 20.1667 23.8114 20.1699 23.4993 19.8581C23.1823 19.5463 23.1791 19.0385 23.4896 18.7219C25.879 16.3015 29.311 14.8712 33.6924 14.4678C33.9257 14.4421 34.1654 14.5305 34.3343 14.6992C34.5017 14.868 34.5886 15.1026 34.5677 15.3405C33.7776 24.0689 28.9361 28.9031 20.1799 29.7131C20.1525 29.7164 20.1268 29.7164 20.1026 29.7164Z" fill="#221B4A"/>
<path d="M28.9471 33.7595C25.8256 33.7595 22.7025 32.575 19.5987 30.2029C19.2447 29.9345 19.1788 29.4299 19.4475 29.0763C19.7194 28.7227 20.223 28.6584 20.5754 28.9268C26.2005 33.2243 31.6776 33.2308 37.3011 28.9397C34.7476 26.9983 32.1908 25.9343 29.6888 25.7704C29.2463 25.7415 28.9117 25.359 28.939 24.9154C28.9696 24.4734 29.3107 24.1359 29.795 24.1665C32.8956 24.369 36.0283 25.7672 39.1048 28.3193C39.2898 28.472 39.396 28.6986 39.396 28.9365C39.396 29.1759 39.2914 29.4025 39.1064 29.5552C35.7387 32.3581 32.3421 33.7595 28.9471 33.7595Z" fill="#221B4A"/>
<path d="M11.2288 33.7599C7.83382 33.7599 4.43719 32.3585 1.06953 29.5556C0.884493 29.4029 0.779907 29.1763 0.779907 28.9369C0.779907 28.699 0.886102 28.4724 1.07114 28.3197C4.14757 25.7676 7.28031 24.3694 10.3809 24.1669C10.8571 24.1331 11.2079 24.4738 11.2369 24.9158C11.2658 25.3578 10.9312 25.7419 10.4871 25.7708C7.98345 25.9347 5.42673 27.0003 2.87484 28.9401C8.49512 33.2311 13.9754 33.2247 19.6005 28.9272C19.9529 28.6588 20.4581 28.7231 20.7284 29.0767C20.9971 29.4286 20.9312 29.9333 20.5772 30.2033C17.4734 32.5738 14.3519 33.7599 11.2288 33.7599Z" fill="#221B4A"/>
<path d="M20.0739 29.7164C20.0481 29.7164 20.024 29.7164 19.9983 29.7131C11.242 28.9031 6.4005 24.0672 5.61047 15.3405C5.58795 15.1042 5.67483 14.868 5.84378 14.6992C6.01273 14.5305 6.24603 14.4421 6.48578 14.4678C10.8671 14.8696 14.2975 16.3015 16.6885 18.7219C16.9991 19.0385 16.9958 19.5463 16.6789 19.8581C16.3651 20.1699 15.8551 20.1667 15.5413 19.8501C13.604 17.8878 10.843 16.6551 7.32246 16.1794C8.2943 23.4983 12.5003 27.4053 20.1463 28.1124C20.5888 28.1526 20.9154 28.5447 20.8736 28.9867C20.8349 29.403 20.4842 29.7164 20.0739 29.7164Z" fill="#221B4A"/>
</g>
<defs>
<clipPath id="clip0">
<rect width="38.6163" height="38.5714" fill="white" transform="translate(0.779846 3.21436)"/>
</clipPath>
</defs>
</svg>
